<svg width="13" height="15" viewBox="0 0 13 15" fill="none" xmlns="http://www.w3.org/2000/svg">
<g clip-path="url(#clip0_154_627)">
<path d="M11.4286 3.57143H10C10 1.6 8.4 0 6.42857 0C4.45714 0 2.85714 1.6 2.85714 3.57143H1.42857C0.642857 3.57143 0 4.21429 0 5V13.5714C0 14.3571 0.642857 15 1.42857 15H11.4286C12.2143 15 12.8571 14.3571 12.8571 13.5714V5C12.8571 4.21429 12.2143 3.57143 11.4286 3.57143ZM6.42857 1.42857C7.61429 1.42857 8.57143 2.38571 8.57143 3.57143H4.28571C4.28571 2.38571 5.24286 1.42857 6.42857 1.42857ZM11.4286 13.5714H1.42857V5H11.4286V13.5714ZM6.42857 7.85714C5.24286 7.85714 4.28571 6.9 4.28571 5.71429H2.85714C2.85714 7.68571 4.45714 9.28571 6.42857 9.28571C8.4 9.28571 10 7.68571 10 5.71429H8.57143C8.57143 6.9 7.61429 7.85714 6.42857 7.85714Z" fill="black"/>
</g>
<defs>
<clipPath id="clip0_154_627">
<rect width="12.8571" height="15" fill="white"/>
</clipPath>
</defs>
</svg>
